<svg width="55" height="56" viewBox="0 0 55 56" fill="none" xmlns="http://www.w3.org/2000/svg">
<rect y="0.0493164" width="55" height="55" rx="27.5" fill="#FFECEC"/>
<path d="M35.5 18.5493H19.5C18.9696 18.5493 18.4609 18.76 18.0858 19.1351C17.7107 19.5102 17.5 20.0189 17.5 20.5493V24.5493C17.5 25.0797 17.7107 25.5885 18.0858 25.9635C18.4609 26.3386 18.9696 26.5493 19.5 26.5493H35.5C36.0304 26.5493 36.5391 26.3386 36.9142 25.9635C37.2893 25.5885 37.5 25.0797 37.5 24.5493V20.5493C37.5 20.0189 37.2893 19.5102 36.9142 19.1351C36.5391 18.76 36.0304 18.5493 35.5 18.5493ZM30.5 22.5493C30.5 23.1016 30.0523 23.5493 29.5 23.5493C28.9477 23.5493 28.5 23.1016 28.5 22.5493C28.5 21.997 28.9477 21.5493 29.5 21.5493C30.0523 21.5493 30.5 21.997 30.5 22.5493ZM34.5 22.5493C34.5 23.1016 34.0523 23.5493 33.5 23.5493C32.9477 23.5493 32.5 23.1016 32.5 22.5493C32.5 21.997 32.9477 21.5493 33.5 21.5493C34.0523 21.5493 34.5 21.997 34.5 22.5493ZM35.5 28.5493H19.5C18.9696 28.5493 18.4609 28.76 18.0858 29.1351C17.7107 29.5102 17.5 30.0189 17.5 30.5493V34.5493C17.5 35.0798 17.7107 35.5885 18.0858 35.9635C18.4609 36.3386 18.9696 36.5493 19.5 36.5493H35.5C36.0304 36.5493 36.5391 36.3386 36.9142 35.9635C37.2893 35.5885 37.5 35.0798 37.5 34.5493V30.5493C37.5 30.0189 37.2893 29.5102 36.9142 29.1351C36.5391 28.76 36.0304 28.5493 35.5 28.5493ZM30.5 32.5493C30.5 33.1016 30.0523 33.5493 29.5 33.5493C28.9477 33.5493 28.5 33.1016 28.5 32.5493C28.5 31.997 28.9477 31.5493 29.5 31.5493C30.0523 31.5493 30.5 31.997 30.5 32.5493ZM34.5 32.5493C34.5 33.1016 34.0523 33.5493 33.5 33.5493C32.9477 33.5493 32.5 33.1016 32.5 32.5493C32.5 31.997 32.9477 31.5493 33.5 31.5493C34.0523 31.5493 34.5 31.997 34.5 32.5493Z" fill="#F53838"/>
</svg>
