<svg width="25" height="25" viewBox="0 0 25 25" fill="none" xmlns="http://www.w3.org/2000/svg">
<path d="M11.3797 17.2796C11.2485 17.2798 11.1184 17.2542 10.9971 17.2041C10.8758 17.154 10.7655 17.0804 10.6727 16.9876L6.43073 12.7446C6.33515 12.6524 6.25889 12.5421 6.2064 12.4201C6.15391 12.2982 6.12623 12.167 6.12498 12.0342C6.12374 11.9014 6.14895 11.7697 6.19914 11.6468C6.24933 11.5238 6.32351 11.4121 6.41733 11.3182C6.51116 11.2242 6.62276 11.1499 6.74562 11.0995C6.86847 11.0492 7.00013 11.0238 7.13291 11.0248C7.26569 11.0259 7.39693 11.0534 7.51897 11.1057C7.64101 11.158 7.75141 11.2341 7.84373 11.3296L11.3787 14.8646L17.7437 8.50156C17.9312 8.31392 18.1856 8.20845 18.4509 8.20836C18.7161 8.20827 18.9706 8.31355 19.1582 8.50106C19.3459 8.68857 19.4513 8.94294 19.4514 9.20821C19.4515 9.47348 19.3462 9.72792 19.1587 9.91556L12.0867 16.9876C11.9939 17.0804 11.8837 17.154 11.7623 17.2041C11.641 17.2542 11.511 17.2798 11.3797 17.2796Z" fill="#2FAB73"/>
</svg>
