<svg width="148" height="149" viewBox="0 0 148 149" fill="none" xmlns="http://www.w3.org/2000/svg">
<g filter="url(#filter0_d_11_50)">
<circle cx="74" cy="60.2529" r="30" fill="#F53838"/>
<circle cx="74" cy="60.2529" r="29" stroke="#F53838" stroke-width="2"/>
</g>
<path d="M65.25 59.0028H80.075L75.5375 53.5528C75.3253 53.2975 75.2232 52.9684 75.2537 52.6379C75.2842 52.3073 75.4447 52.0025 75.7 51.7903C75.9553 51.5781 76.2844 51.476 76.6149 51.5065C76.9454 51.537 77.2503 51.6975 77.4625 51.9528L83.7125 59.4528C83.7545 59.5124 83.7922 59.5751 83.825 59.6403C83.825 59.7028 83.825 59.7403 83.9125 59.8028C83.9692 59.9461 83.9988 60.0987 84 60.2528C83.9988 60.4069 83.9692 60.5595 83.9125 60.7028C83.9125 60.7653 83.9125 60.8028 83.825 60.8653C83.7922 60.9305 83.7545 60.9931 83.7125 61.0528L77.4625 68.5528C77.345 68.6939 77.1978 68.8074 77.0314 68.8851C76.8651 68.9629 76.6836 69.0031 76.5 69.0028C76.2079 69.0034 75.9249 68.9016 75.7 68.7153C75.5734 68.6103 75.4688 68.4815 75.3921 68.336C75.3154 68.1906 75.2682 68.0315 75.2531 67.8678C75.238 67.704 75.2553 67.5389 75.3041 67.3819C75.3529 67.2249 75.4322 67.0791 75.5375 66.9528L80.075 61.5028H65.25C64.9185 61.5028 64.6005 61.3711 64.3661 61.1367C64.1317 60.9022 64 60.5843 64 60.2528C64 59.9213 64.1317 59.6033 64.3661 59.3689C64.6005 59.1345 64.9185 59.0028 65.25 59.0028Z" fill="white"/>
<defs>
<filter id="filter0_d_11_50" x="0" y="0.25293" width="148" height="148" filterUnits="userSpaceOnUse" color-interpolation-filters="sRGB">
<feFlood flood-opacity="0" result="BackgroundImageFix"/>
<feColorMatrix in="SourceAlpha" type="matrix" values="0 0 0 0 0 0 0 0 0 0 0 0 0 0 0 0 0 0 127 0" result="hardAlpha"/>
<feOffset dy="14"/>
<feGaussianBlur stdDeviation="22"/>
<feColorMatrix type="matrix" values="0 0 0 0 0.0561111 0 0 0 0 0.0777333 0 0 0 0 0.133333 0 0 0 0.08 0"/>
<feBlend mode="normal" in2="BackgroundImageFix" result="effect1_dropShadow_11_50"/>
<feBlend mode="normal" in="SourceGraphic" in2="effect1_dropShadow_11_50" result="shape"/>
</filter>
</defs>
</svg>
