<svg width="60" height="61" viewBox="0 0 60 61" fill="none" xmlns="http://www.w3.org/2000/svg">
<circle cx="30" cy="30.2529" r="29" stroke="#F53838" stroke-width="2"/>
<path d="M38.75 29.0028H23.925L28.4625 23.5528C28.6747 23.2975 28.7768 22.9684 28.7463 22.6379C28.7158 22.3073 28.5553 22.0025 28.3 21.7903C28.0447 21.5781 27.7156 21.476 27.3851 21.5065C27.0546 21.537 26.7497 21.6975 26.5375 21.9528L20.2875 29.4528C20.2455 29.5124 20.2078 29.5751 20.175 29.6403C20.175 29.7028 20.175 29.7403 20.0875 29.8028C20.0308 29.9461 20.0012 30.0987 20 30.2528C20.0012 30.4069 20.0308 30.5595 20.0875 30.7028C20.0875 30.7653 20.0875 30.8028 20.175 30.8653C20.2078 30.9305 20.2455 30.9931 20.2875 31.0528L26.5375 38.5528C26.655 38.6939 26.8022 38.8074 26.9686 38.8851C27.1349 38.9629 27.3164 39.0031 27.5 39.0028C27.7921 39.0034 28.0751 38.9016 28.3 38.7153C28.4266 38.6103 28.5312 38.4815 28.6079 38.336C28.6846 38.1906 28.7318 38.0315 28.7469 37.8678C28.762 37.704 28.7447 37.5389 28.6959 37.3819C28.6471 37.2249 28.5678 37.0791 28.4625 36.9528L23.925 31.5028H38.75C39.0815 31.5028 39.3995 31.3711 39.6339 31.1367C39.8683 30.9022 40 30.5843 40 30.2528C40 29.9213 39.8683 29.6033 39.6339 29.3689C39.3995 29.1345 39.0815 29.0028 38.75 29.0028Z" fill="#F53838"/>
</svg>
